<svg xmlns="http://www.w3.org/2000/svg" xmlns:xlink="http://www.w3.org/1999/xlink" width="1080" zoomAndPan="magnify" viewBox="0 0 810 809.999993" height="1080" preserveAspectRatio="xMidYMid meet" version="1.0"><path fill="#ffd400" d="M 390.105469 341.859375 C 379.257812 340.828125 374.78125 346.160156 370.992188 362.167969 C 368.066406 374.558594 366 387.8125 367.378906 400.203125 C 369.101562 416.726562 382.875 422.578125 397.511719 415.175781 C 416.277344 405.710938 433.667969 370.945312 429.878906 350.808594 C 425.574219 328.605469 403.191406 309.160156 378.914062 306.578125 C 362.210938 304.855469 347.234375 309.160156 338.277344 323.617188 C 317.789062 356.832031 305.910156 392.632812 313.828125 432.386719 C 315.207031 439.273438 317.617188 446.15625 320.542969 452.523438 C 336.210938 487.632812 353.777344 496.410156 392.34375 495.207031 C 464.660156 492.96875 535.257812 398.308594 482.742188 315.871094 C 475.507812 304.511719 463.800781 294.011719 451.746094 287.816406 C 434.703125 279.039062 415.761719 273.359375 397.164062 268.714844 C 365.3125 260.96875 338.277344 271.640625 317.273438 296.25 C 291.445312 326.199219 275.085938 360.964844 267.167969 399.859375 C 260.109375 434.28125 256.664062 468.53125 267.511719 503.296875 C 281.628906 548.902344 311.589844 574.375 358.941406 581.089844 C 399.574219 586.769531 437.972656 581.433594 472.925781 560.089844 C 519.585938 531.519531 559.535156 496.410156 577.269531 442.027344 C 589.667969 404.335938 588.804688 365.609375 584.671875 326.886719 C 583.984375 321.035156 582.949219 315.355469 581.917969 309.675781 C 571.585938 245.652344 531.46875 209.164062 470.6875 195.222656 C 441.933594 188.683594 411.628906 184.554688 382.359375 186.101562 C 335.523438 188.683594 298.503906 213.984375 268.199219 249.09375 C 240.652344 280.933594 222.570312 318.28125 210.347656 358.039062 C 200.015625 391.941406 191.0625 426.707031 186.414062 461.644531 C 179.527344 513.964844 197.261719 560.953125 226.1875 604.152344 C 227.566406 606.214844 229.113281 608.453125 230.835938 610.347656 C 270.09375 653.71875 319.683594 678.5 376.675781 688.3125 C 399.230469 692.269531 421.789062 688.140625 443.3125 680.050781 C 535.085938 645.628906 596.898438 582.292969 628.75 489.527344 C 643.730469 445.640625 648.035156 400.03125 651.480469 354.25 C 653.203125 331.878906 648.726562 310.191406 638.566406 290.398438 C 625.136719 263.894531 611.015625 237.734375 595.519531 212.433594 C 580.367188 187.824219 559.535156 168.375 534.910156 153.402344 C 505.296875 135.160156 473.960938 121.390625 440.726562 112.269531 C 414.039062 105.039062 388.039062 110.03125 362.902344 119.667969 C 334.148438 130.511719 308.492188 146.863281 284.902344 166.136719 C 196.226562 238.421875 141.300781 331.878906 118.917969 443.230469 C 107.039062 502.089844 108.585938 561.46875 131.316406 618.953125 C 148.535156 662.324219 177.289062 694.851562 219.472656 715.160156 C 242.199219 726.175781 265.273438 736.5 287.65625 747.859375 C 366.515625 787.789062 442.449219 780.90625 515.800781 733.917969 C 530.433594 724.453125 544.898438 714.644531 559.191406 704.660156 C 577.441406 691.925781 593.625 676.78125 604.128906 656.988281 C 628.925781 610.175781 654.234375 563.535156 676.789062 515.6875 C 697.96875 470.765625 706.75 422.40625 705.71875 372.496094 C 705.199219 345.988281 705.71875 319.3125 703.136719 293.152344 C 701.414062 276.113281 696.9375 258.558594 690.050781 242.898438 C 662.328125 179.5625 617.214844 131.027344 560.566406 91.960938 C 515.972656 61.152344 466.726562 46.867188 413.523438 42.566406 C 344.648438 37.058594 288 60.121094 243.40625 112.957031 C 227.222656 132.234375 210.003906 150.648438 193.300781 169.234375 C 180.730469 183.175781 184.691406 156.84375 186.070312 153.230469 C 202.597656 110.375 236.347656 78.363281 272.675781 52.890625 C 328.292969 13.824219 389.933594 10.898438 454.847656 22.257812 C 524.753906 34.476562 580.886719 69.929688 630.816406 118.121094 C 665.253906 151.335938 691.253906 190.234375 710.539062 233.949219 C 720.351562 256.148438 726.207031 278.867188 726.378906 303.308594 C 726.550781 333.769531 728.445312 364.0625 727.585938 394.351562 C 726.378906 438.753906 715.1875 481.78125 696.246094 521.539062 C 673.003906 570.417969 647.519531 618.4375 620.316406 665.421875 C 609.984375 683.320312 593.972656 699.152344 577.785156 712.578125 C 554.886719 731.339844 530.261719 748.722656 504.78125 763.523438 C 433.839844 804.828125 360.835938 809.648438 286.28125 772.300781 C 259.074219 758.703125 232.042969 744.933594 204.835938 731.511719 C 168.679688 713.957031 141.128906 687.449219 122.363281 652.167969 C 105.144531 619.8125 95.328125 585.21875 92.230469 548.730469 C 81.554688 419.480469 126.667969 308.988281 207.417969 211.058594 C 236.691406 175.429688 270.265625 144.109375 310.039062 120.183594 C 324.332031 111.578125 339.140625 103.144531 354.636719 96.605469 C 391.828125 80.945312 429.878906 77.847656 467.761719 94.367188 C 490.316406 104.179688 513.042969 113.644531 534.566406 125.175781 C 571.414062 144.796875 599.480469 174.054688 620.832031 209.679688 C 631.335938 227.40625 640.632812 245.996094 650.273438 264.238281 C 669.558594 300.898438 674.898438 339.449219 668.527344 380.753906 C 660.949219 430.839844 651.136719 479.890625 631.851562 527.046875 C 596.554688 613.617188 533.363281 670.757812 446.238281 702.769531 C 410.941406 715.675781 374.78125 716.191406 340 702.25 C 310.730469 690.375 281.628906 677.296875 254.769531 660.773438 C 205.527344 630.828125 181.074219 582.636719 166.785156 528.59375 C 159.554688 501.402344 158.003906 473.695312 162.996094 445.984375 C 173.5 386.433594 189.683594 328.777344 220.332031 276.113281 C 243.234375 236.703125 273.367188 204.863281 313.65625 182.660156 C 356.875 158.738281 402.503906 158.222656 449.507812 165.792969 C 481.363281 170.957031 510.804688 180.9375 537.152344 199.871094 C 573.480469 225.6875 595.003906 259.9375 601.546875 303.824219 C 611.015625 365.953125 608.433594 426.878906 577.097656 482.988281 C 543.347656 543.050781 493.414062 584.703125 425.230469 600.363281 C 394.753906 607.421875 363.417969 605.699219 332.941406 597.4375 C 283.871094 584.1875 248.914062 547.527344 240.652344 484.535156 C 230.835938 410.359375 253.21875 343.925781 300.742188 286.269531 C 329.667969 251.332031 366.863281 240.660156 410.597656 252.191406 C 418.6875 254.257812 426.78125 257.011719 434.53125 259.765625 C 505.984375 286.097656 538.355469 365.609375 504.4375 434.28125 C 481.191406 481.265625 444.515625 511.386719 390.277344 516.203125 C 357.046875 519.128906 330.53125 508.632812 312.105469 480.0625 C 293.339844 451.148438 285.246094 419.480469 293.339844 385.746094 C 298.503906 364.578125 305.046875 343.234375 314.691406 323.789062 C 329.496094 293.667969 357.21875 282.136719 389.246094 289.023438 C 419.722656 295.5625 446.238281 323.789062 448.992188 353.046875 C 451.746094 381.445312 428.675781 421.199219 402.847656 432.902344 C 378.226562 443.917969 352.914062 430.839844 348.78125 403.988281 C 345.511719 382.992188 349.296875 362.683594 358.941406 343.753906 C 364.621094 332.738281 373.578125 325.507812 386.316406 324.648438 C 401.125 323.789062 416.792969 344.613281 390.105469 341.859375 Z M 390.105469 341.859375 " fill-opacity="1" fill-rule="nonzero"/></svg>