<svg xmlns="http://www.w3.org/2000/svg" xmlns:xlink="http://www.w3.org/1999/xlink" width="1080" zoomAndPan="magnify" viewBox="0 0 810 809.999993" height="1080" preserveAspectRatio="xMidYMid meet" version="1.0"><defs><clipPath id="6d0ddc79dc"><path d="M 4 47 L 802 47 L 802 700 L 4 700 Z M 4 47 " clip-rule="nonzero"/></clipPath><clipPath id="cf85d704a7"><path d="M 604.03125 885.316406 L -283.566406 574.335938 L -10.28125 -205.675781 L 877.316406 105.304688 Z M 604.03125 885.316406 " clip-rule="nonzero"/></clipPath><clipPath id="3f9afac50b"><path d="M 604.03125 885.316406 L -283.566406 574.335938 L -10.28125 -205.675781 L 877.316406 105.304688 Z M 604.03125 885.316406 " clip-rule="nonzero"/></clipPath></defs><g clip-path="url(#6d0ddc79dc)"><g clip-path="url(#cf85d704a7)"><g clip-path="url(#3f9afac50b)"><path fill="#ffd400" d="M 659.039062 588.894531 C 704.382812 522.628906 848.355469 188.160156 785.414062 115.195312 C 733.355469 54.84375 568.925781 5.519531 481.78125 103.386719 C 323.871094 280.734375 -133.167969 145.488281 44.457031 415.746094 C 169.535156 606.066406 484.835938 843.53125 659.039062 588.894531 Z M 659.039062 588.894531 " fill-opacity="1" fill-rule="evenodd"/></g></g></g></svg>