<svg xmlns="http://www.w3.org/2000/svg" xmlns:xlink="http://www.w3.org/1999/xlink" width="1080" zoomAndPan="magnify" viewBox="0 0 810 809.999993" height="1080" preserveAspectRatio="xMidYMid meet" version="1.0"><path fill="#ffffff" d="M 484.25 150.324219 L 110.769531 523.78125 C 107.546875 527.003906 105.269531 531.050781 104.207031 535.480469 L 59.371094 720.636719 C 57.335938 729.042969 59.804688 737.90625 65.933594 744.011719 C 70.632812 748.710938 76.980469 751.277344 83.472656 751.277344 C 85.410156 751.277344 87.371094 751.058594 89.308594 750.574219 L 274.464844 705.742188 C 278.894531 704.675781 282.941406 702.398438 286.164062 699.175781 L 659.621094 325.695312 Z M 484.25 150.324219 " fill-opacity="1" fill-rule="nonzero"/><path fill="#ffffff" d="M 737.058594 171.953125 L 637.992188 72.886719 C 627.042969 61.9375 611.371094 56.875 594.632812 59.199219 C 580.269531 61.136719 566.292969 68.285156 555.246094 79.328125 L 519.324219 115.25 L 694.695312 290.621094 L 730.617188 254.699219 C 741.660156 243.652344 748.808594 229.675781 750.746094 215.3125 C 752.996094 198.695312 748.007812 182.902344 737.058594 171.953125 Z M 737.058594 171.953125 " fill-opacity="1" fill-rule="nonzero"/></svg>