<svg xmlns="http://www.w3.org/2000/svg" xmlns:xlink="http://www.w3.org/1999/xlink" width="1080" zoomAndPan="magnify" viewBox="0 0 810 809.999993" height="1080" preserveAspectRatio="xMidYMid meet" version="1.0"><defs><clipPath id="740b41175a"><path d="M 247 15 L 810 15 L 810 764 L 247 764 Z M 247 15 " clip-rule="nonzero"/></clipPath><clipPath id="d1a706e5e2"><path d="M 307.621094 -12.34375 L 993.078125 59.859375 L 916.867188 783.359375 L 231.410156 711.152344 Z M 307.621094 -12.34375 " clip-rule="nonzero"/></clipPath><clipPath id="019c7dce20"><path d="M 307.621094 -12.34375 L 993.078125 59.859375 L 916.867188 783.359375 L 231.410156 711.152344 Z M 307.621094 -12.34375 " clip-rule="nonzero"/></clipPath></defs><g clip-path="url(#740b41175a)"><g clip-path="url(#d1a706e5e2)"><g clip-path="url(#019c7dce20)"><path fill="#ffd400" d="M 725.175781 763.097656 C 723.933594 762.964844 722.6875 762.828125 721.445312 762.699219 C 716.015625 762.132812 710.589844 761.5625 705.160156 761 C 700.039062 760.503906 695.171875 758.875 690.347656 757.292969 C 678.566406 753.429688 666.992188 748.976562 655.792969 743.625 C 648.269531 740.023438 640.941406 736.035156 633.6875 731.917969 C 617.269531 722.601562 601.398438 712.332031 584.667969 703.5625 C 573.9375 697.9375 562.785156 693.363281 551.007812 690.359375 C 545.359375 688.917969 539.707031 687.597656 533.949219 686.617188 C 530.558594 686.039062 527.1875 685.265625 523.757812 685.125 C 517.320312 684.855469 510.882812 684.613281 504.425781 684.691406 C 496.933594 684.777344 489.46875 685.175781 482.003906 685.675781 C 475.867188 686.089844 469.773438 686.871094 463.714844 687.769531 C 452.578125 689.417969 441.511719 691.546875 430.582031 694.238281 C 417.714844 697.40625 404.753906 699.984375 391.59375 701.5625 C 384.558594 702.40625 377.519531 702.59375 370.425781 702.472656 C 361.519531 702.324219 352.722656 701.242188 343.933594 700.140625 C 332.242188 698.679688 321.25 694.933594 311.074219 688.882812 C 306.855469 686.378906 302.796875 683.648438 298.78125 680.832031 C 294.902344 678.109375 291.6875 674.699219 288.433594 671.332031 C 285.246094 668.03125 282.222656 664.574219 279.332031 660.996094 C 273.054688 653.230469 268.183594 644.617188 264.03125 635.605469 C 257.453125 621.320312 252.988281 606.328125 249.996094 590.917969 C 248.53125 583.355469 247.902344 575.675781 247.992188 567.9375 C 248.019531 565.328125 248.066406 562.730469 248.261719 560.136719 C 249.015625 556.234375 248.820312 552.28125 248.917969 548.339844 C 249.03125 543.847656 250.902344 539.621094 250.894531 535.113281 C 251.835938 528.917969 253.601562 522.925781 255.394531 516.941406 C 257.582031 509.65625 259.867188 502.40625 262.929688 495.417969 C 265.824219 488.808594 269.113281 482.414062 272.695312 476.171875 C 276.125 470.191406 279.601562 464.230469 283.359375 458.457031 C 290.984375 446.722656 298.960938 435.226562 307.238281 423.933594 C 314.769531 413.664062 322.011719 403.179688 329.535156 392.902344 C 336.140625 383.871094 342.382812 374.601562 348.203125 365.054688 C 355.648438 352.828125 362.410156 340.246094 367.117188 326.65625 C 369.539062 319.664062 371.488281 312.5625 373.039062 305.3125 C 374.207031 299.859375 374.863281 294.363281 375.117188 288.859375 C 375.394531 282.945312 375.722656 277.019531 375.425781 271.066406 C 375.125 265.042969 375.339844 258.992188 375.226562 252.957031 C 375.128906 247.652344 374.910156 242.351562 374.710938 237.042969 C 374.46875 230.597656 374.183594 224.152344 373.933594 217.707031 C 373.71875 212.199219 373.480469 206.6875 373.339844 201.175781 C 373.234375 197.011719 373.058594 192.835938 373.296875 188.6875 C 373.796875 179.730469 373.699219 170.730469 374.847656 161.828125 C 377.300781 142.867188 382.207031 124.640625 391.460938 107.753906 C 396.339844 98.84375 402.121094 90.53125 408.351562 82.527344 C 414.070312 75.179688 420.40625 68.4375 427.480469 62.347656 C 436.535156 54.558594 446.421875 48.058594 456.726562 42.078125 C 471.226562 33.664062 486.941406 28.402344 503 24.117188 C 515.390625 20.808594 527.90625 17.933594 540.675781 16.421875 C 546.765625 15.699219 552.875 15.261719 559.039062 15.316406 C 566.660156 15.382812 574.242188 15.746094 581.816406 16.554688 C 588.046875 17.21875 594.160156 18.496094 600.304688 19.617188 C 605.648438 20.585938 610.867188 21.953125 616.105469 23.304688 C 622.285156 24.894531 628.175781 27.28125 633.9375 29.976562 C 642.089844 33.792969 649.769531 38.441406 657.203125 43.496094 C 663.761719 47.957031 670.148438 52.667969 676.699219 57.140625 C 682.820312 61.324219 689.214844 65.089844 695.519531 68.996094 C 705.851562 75.390625 716.855469 80.359375 728.03125 85.042969 C 736.703125 88.679688 745.742188 91.148438 754.695312 93.867188 C 758.730469 95.089844 762.949219 96.191406 767.324219 95.566406 C 768.132812 95.449219 768.992188 95.648438 769.820312 95.734375 C 775.230469 96.285156 780.632812 96.867188 786.042969 97.398438 C 793.316406 98.109375 800.464844 99.507812 807.652344 100.777344 C 813.195312 101.753906 818.71875 102.835938 824.191406 104.066406 C 831.808594 105.777344 839.222656 108.257812 846.492188 111.132812 C 855.53125 114.714844 864.355469 118.777344 872.570312 123.96875 C 881.925781 129.878906 891.03125 136.203125 899 143.957031 C 908.328125 153.03125 914.515625 163.996094 918.328125 176.429688 C 920.636719 183.960938 922.289062 191.589844 922.464844 199.441406 C 922.632812 206.84375 921.984375 214.1875 920.539062 221.519531 C 918.074219 233.980469 912.632812 245.203125 906.984375 256.378906 C 900.757812 268.691406 895.492188 281.40625 891.433594 294.582031 C 889.96875 299.332031 888.792969 304.230469 888.34375 309.246094 C 887.8125 315.183594 886.992188 321.097656 886.570312 327.042969 C 886.210938 332.125 886.425781 337.238281 886.53125 342.339844 C 886.679688 349.214844 887.15625 356.0625 887.761719 362.902344 C 888.546875 371.734375 889.503906 380.558594 891.652344 389.167969 C 894.410156 400.199219 897.460938 411.160156 900.492188 422.121094 C 901.71875 426.542969 903.140625 430.921875 904.664062 435.253906 C 907.507812 443.335938 910.46875 451.375 913.433594 459.414062 C 916.863281 468.730469 920.453125 477.984375 923.789062 487.328125 C 928.03125 499.222656 932.367188 511.101562 934.949219 523.511719 C 937.15625 534.136719 938.875 544.847656 939.226562 555.699219 C 939.449219 562.671875 939.390625 569.671875 938.488281 576.625 C 937.960938 581.636719 937.433594 586.644531 936.902344 591.652344 C 934.515625 610.707031 927.082031 627.691406 915.980469 643.234375 C 909.324219 652.550781 901.335938 660.5625 892.84375 668.164062 C 884.988281 675.199219 877.140625 682.246094 868.722656 688.589844 C 862.300781 693.433594 855.957031 698.375 849.859375 703.597656 C 841.929688 710.382812 834.144531 717.332031 826.027344 723.890625 C 818.304688 730.125 810.15625 735.714844 801.679688 740.871094 C 793.109375 746.082031 784.304688 750.835938 774.96875 754.496094 C 762.277344 759.472656 749.160156 762.601562 735.453125 762.992188 C 732.027344 763.097656 728.601562 763.207031 725.175781 763.097656 Z M 725.175781 763.097656 " fill-opacity="1" fill-rule="nonzero"/></g></g></g></svg>