<svg xmlns="http://www.w3.org/2000/svg" xmlns:xlink="http://www.w3.org/1999/xlink" width="1080" zoomAndPan="magnify" viewBox="0 0 810 809.999993" height="1080" preserveAspectRatio="xMidYMid meet" version="1.0"><defs><clipPath id="239b03011b"><path d="M 0 45 L 510 45 L 510 791 L 0 791 Z M 0 45 " clip-rule="nonzero"/></clipPath><clipPath id="703a95774a"><path d="M 431.089844 825.738281 L -244.136719 731.640625 L -144.863281 19.273438 L 530.363281 113.371094 Z M 431.089844 825.738281 " clip-rule="nonzero"/></clipPath><clipPath id="2a743cacbd"><path d="M 431.089844 825.738281 L -244.136719 731.640625 L -144.863281 19.273438 L 530.363281 113.371094 Z M 431.089844 825.738281 " clip-rule="nonzero"/></clipPath></defs><g clip-path="url(#239b03011b)"><g clip-path="url(#703a95774a)"><g clip-path="url(#2a743cacbd)"><path fill="#ffd400" d="M 43.964844 45.652344 C 45.1875 45.828125 46.417969 46 47.640625 46.171875 C 52.984375 46.914062 58.332031 47.65625 63.679688 48.390625 C 68.726562 49.050781 73.484375 50.820312 78.203125 52.546875 C 89.722656 56.753906 101.015625 61.535156 111.90625 67.199219 C 119.230469 71.007812 126.339844 75.1875 133.375 79.5 C 149.296875 89.25 164.648438 99.925781 180.894531 109.144531 C 191.316406 115.058594 202.1875 119.949219 213.730469 123.308594 C 219.269531 124.921875 224.816406 126.410156 230.472656 127.574219 C 233.804688 128.257812 237.109375 129.132812 240.496094 129.386719 C 246.855469 129.863281 253.210938 130.316406 259.59375 130.453125 C 267.003906 130.617188 274.394531 130.472656 281.792969 130.226562 C 287.871094 130.023438 293.921875 129.449219 299.941406 128.765625 C 311.003906 127.507812 322.015625 125.769531 332.910156 123.472656 C 345.734375 120.769531 358.632812 118.652344 371.695312 117.53125 C 378.675781 116.929688 385.640625 116.976562 392.648438 117.332031 C 401.449219 117.773438 410.109375 119.136719 418.761719 120.515625 C 430.269531 122.347656 441.011719 126.417969 450.875 132.730469 C 454.960938 135.347656 458.882812 138.175781 462.757812 141.09375 C 466.503906 143.910156 469.570312 147.390625 472.671875 150.824219 C 475.714844 154.191406 478.589844 157.707031 481.328125 161.339844 C 487.277344 169.222656 491.808594 177.894531 495.617188 186.9375 C 501.644531 201.269531 505.5625 216.230469 508.007812 231.558594 C 509.210938 239.078125 509.574219 246.6875 509.230469 254.332031 C 509.117188 256.910156 508.984375 259.476562 508.707031 262.03125 C 507.832031 265.859375 507.894531 269.773438 507.667969 273.664062 C 507.410156 278.101562 505.417969 282.214844 505.277344 286.667969 C 504.140625 292.757812 502.195312 298.625 500.226562 304.476562 C 497.824219 311.601562 495.328125 318.6875 492.066406 325.496094 C 488.984375 331.925781 485.523438 338.136719 481.777344 344.1875 C 478.1875 349.980469 474.550781 355.757812 470.648438 361.339844 C 462.71875 372.679688 454.453125 383.773438 445.902344 394.65625 C 438.117188 404.558594 430.609375 414.675781 422.832031 424.578125 C 416 433.285156 409.527344 442.238281 403.457031 451.476562 C 395.691406 463.3125 388.59375 475.519531 383.492188 488.792969 C 380.863281 495.621094 378.699219 502.574219 376.925781 509.6875 C 375.59375 515.035156 374.765625 520.445312 374.328125 525.875 C 373.863281 531.707031 373.339844 537.554688 373.4375 543.445312 C 373.535156 549.40625 373.121094 555.378906 373.035156 561.34375 C 372.957031 566.59375 372.996094 571.835938 373.015625 577.085938 C 373.042969 583.464844 373.113281 589.84375 373.144531 596.21875 C 373.175781 601.671875 373.230469 607.125 373.183594 612.574219 C 373.152344 616.691406 373.1875 620.824219 372.816406 624.917969 C 372.023438 633.746094 371.824219 642.648438 370.394531 651.402344 C 367.339844 670.058594 361.886719 687.90625 352.183594 704.285156 C 347.0625 712.929688 341.074219 720.945312 334.648438 728.652344 C 328.753906 735.71875 322.265625 742.171875 315.074219 747.953125 C 305.863281 755.351562 295.875 761.449219 285.492188 767.011719 C 270.878906 774.847656 255.171875 779.523438 239.152344 783.226562 C 226.792969 786.082031 214.328125 788.507812 201.65625 789.578125 C 195.609375 790.089844 189.554688 790.320312 183.464844 790.0625 C 175.933594 789.746094 168.449219 789.128906 160.988281 788.078125 C 154.851562 787.21875 148.851562 785.75 142.8125 784.445312 C 137.5625 783.308594 132.449219 781.78125 127.3125 780.273438 C 121.257812 778.496094 115.515625 775.945312 109.910156 773.089844 C 101.976562 769.046875 94.535156 764.199219 87.355469 758.957031 C 81.019531 754.332031 74.863281 749.464844 68.535156 744.828125 C 62.621094 740.488281 56.421875 736.558594 50.320312 732.488281 C 40.316406 725.828125 29.601562 720.554688 18.714844 715.554688 C 10.261719 711.675781 1.40625 708.933594 -7.355469 705.949219 C -11.304688 704.609375 -15.4375 703.378906 -19.785156 703.851562 C -20.585938 703.941406 -21.425781 703.714844 -22.246094 703.605469 C -27.574219 702.878906 -32.894531 702.125 -38.226562 701.421875 C -45.390625 700.476562 -52.414062 698.855469 -59.476562 697.363281 C -64.925781 696.21875 -70.347656 694.960938 -75.71875 693.566406 C -83.191406 691.625 -90.4375 688.925781 -97.53125 685.839844 C -106.347656 682.003906 -114.9375 677.695312 -122.882812 672.292969 C -131.9375 666.144531 -140.730469 659.589844 -148.351562 651.667969 C -157.273438 642.390625 -163.027344 631.351562 -166.382812 618.9375 C -168.417969 611.421875 -169.796875 603.828125 -169.714844 596.0625 C -169.632812 588.742188 -168.75 581.507812 -167.078125 574.3125 C -164.230469 562.078125 -158.480469 551.171875 -152.523438 540.316406 C -145.960938 528.355469 -140.335938 515.964844 -135.886719 503.082031 C -134.285156 498.4375 -132.960938 493.636719 -132.347656 488.695312 C -131.625 482.847656 -130.621094 477.027344 -130.007812 471.167969 C -129.484375 466.15625 -129.527344 461.101562 -129.464844 456.054688 C -129.382812 449.257812 -129.628906 442.476562 -130 435.695312 C -130.480469 426.941406 -131.136719 418.191406 -132.976562 409.613281 C -135.339844 398.621094 -137.988281 387.691406 -140.625 376.757812 C -141.691406 372.347656 -142.949219 367.976562 -144.3125 363.644531 C -146.859375 355.5625 -149.519531 347.519531 -152.183594 339.476562 C -155.265625 330.164062 -158.507812 320.898438 -161.496094 311.554688 C -165.296875 299.660156 -169.191406 287.78125 -171.332031 275.429688 C -173.164062 264.859375 -174.507812 254.21875 -174.496094 243.484375 C -174.488281 236.585938 -174.199219 229.671875 -173.074219 222.828125 C -172.386719 217.898438 -171.699219 212.964844 -171.007812 208.035156 C -168.023438 189.285156 -160.109375 172.75 -148.621094 157.757812 C -141.734375 148.773438 -133.570312 141.125 -124.925781 133.894531 C -116.925781 127.207031 -108.9375 120.503906 -100.40625 114.511719 C -93.894531 109.941406 -87.460938 105.269531 -81.257812 100.308594 C -73.199219 93.867188 -65.273438 87.257812 -57.027344 81.046875 C -49.191406 75.144531 -40.949219 69.894531 -32.398438 65.078125 C -23.753906 60.210938 -14.894531 55.808594 -5.542969 52.5 C 7.167969 48.003906 20.238281 45.347656 33.800781 45.417969 C 37.191406 45.425781 40.582031 45.433594 43.964844 45.652344 Z M 43.964844 45.652344 " fill-opacity="1" fill-rule="nonzero"/></g></g></g></svg>